<svg width="138" height="50" viewBox="0 0 138 50" fill="none" xmlns="http://www.w3.org/2000/svg">
<g clip-path="url(#clip0_2535_10098)">
<path fill-rule="evenodd" clip-rule="evenodd" d="M7.52036 11.8483H5.44895V6.90251C5.45241 6.63645 5.40381 6.37228 5.30588 6.12467C5.22482 5.91656 5.10218 5.72694 4.94538 5.56722C4.80063 5.42247 4.62654 5.31001 4.43469 5.23732C4.23749 5.16633 4.0293 5.13023 3.81954 5.13065C3.51103 5.12922 3.2043 5.17722 2.91115 5.27287C2.616 5.37069 2.33438 5.50494 2.07285 5.67245V11.8483H0V0H2.06999L2.08431 4.05846C2.4009 3.81585 2.76189 3.63668 3.14719 3.53088C3.52531 3.4195 3.91731 3.36157 4.31167 3.35881C4.72797 3.35645 5.14147 3.42671 5.53333 3.56644C5.91428 3.70262 6.26224 3.91675 6.55474 4.19497C6.86291 4.49371 7.10334 4.85443 7.26 5.25295C7.44248 5.73433 7.53036 6.24601 7.51894 6.76031L7.52036 11.8483Z" fill="white"/>
<path fill-rule="evenodd" clip-rule="evenodd" d="M16.4623 11.8465H14.3923V11.2179C14.2531 11.3552 14.0957 11.4728 13.9245 11.5678C13.745 11.6686 13.5574 11.7547 13.3637 11.8251C13.1673 11.8959 12.9654 11.9506 12.76 11.9887C12.5682 12.0259 12.3733 12.0454 12.1778 12.047C11.7645 12.0484 11.3539 11.9806 10.9633 11.8465C10.5806 11.7163 10.23 11.5069 9.93473 11.2322C9.61998 10.9313 9.37576 10.5652 9.21945 10.1599C9.0307 9.66033 8.94036 9.12926 8.95338 8.59573V3.58594H11.0277V8.50188C11.0242 8.76838 11.0728 9.03303 11.1707 9.28114C11.2516 9.48933 11.3743 9.679 11.5312 9.83857C11.6766 9.98494 11.853 10.0972 12.0476 10.1671C12.2434 10.238 12.4501 10.2741 12.6585 10.2737C13.307 10.2824 13.9328 10.0361 14.3995 9.5883V3.58594H16.4694L16.4623 11.8465Z" fill="white"/>
<path fill-rule="evenodd" clip-rule="evenodd" d="M30.4944 11.8475H28.4244V6.91596C28.4244 6.33578 28.2814 5.89542 27.9953 5.5949C27.73 5.30198 27.3503 5.13756 26.9538 5.14412C26.3179 5.13485 25.7017 5.36438 25.2287 5.78687C25.3186 6.15646 25.3619 6.53575 25.3575 6.91596V11.8475H23.2917V6.91596C23.2917 6.33578 23.1486 5.89542 22.8626 5.5949C22.6014 5.30396 22.2262 5.13959 21.8339 5.14412C21.5478 5.13829 21.2634 5.19458 21.0014 5.30906C20.7274 5.44268 20.4765 5.61831 20.2574 5.82954V11.8475H18.1875V3.58699H20.2574V4.20132C20.5239 3.94876 20.8333 3.74554 21.1717 3.60123C21.5089 3.45141 21.8738 3.37344 22.2432 3.37226C22.6632 3.37621 23.0777 3.46879 23.459 3.64387C23.8699 3.82549 24.236 4.09382 24.5321 4.43026C25.2759 3.72764 26.2699 3.34714 27.2958 3.37226C27.7142 3.37 28.1301 3.43532 28.5275 3.56567C28.9088 3.68955 29.2561 3.89986 29.5418 4.17998C29.8454 4.48517 30.0807 4.85051 30.2327 5.25219C30.4172 5.75276 30.5051 6.28346 30.4915 6.81642L30.4944 11.8475Z" fill="white"/>
<path fill-rule="evenodd" clip-rule="evenodd" d="M49.2977 11.8464H47.2277V6.91479C47.2311 6.64876 47.1825 6.38458 47.0845 6.13695C47.0027 5.92724 46.877 5.73723 46.7156 5.57952C46.5657 5.43382 46.3861 5.32181 46.1891 5.25104C45.9926 5.17892 45.7849 5.14231 45.5753 5.14296C45.2553 5.14358 44.9378 5.19939 44.6369 5.30792C44.3258 5.42062 44.0423 5.59805 43.8058 5.82837V11.8464H41.7344V3.58585H43.8058L43.8202 4.20017C43.9577 4.0668 44.112 3.95161 44.2792 3.85745C44.4619 3.75277 44.6533 3.66427 44.8515 3.59295C45.0477 3.52111 45.2496 3.46594 45.4552 3.42799C45.6518 3.3908 45.8515 3.37174 46.0518 3.37112C46.4655 3.36968 46.8766 3.43745 47.2676 3.57163C47.6521 3.70243 48.0049 3.91168 48.3034 4.18594C48.6205 4.4866 48.8666 4.85323 49.0243 5.25956C49.2169 5.75588 49.3098 6.28488 49.2977 6.81669V11.8464Z" fill="white"/>
<path fill-rule="evenodd" clip-rule="evenodd" d="M40.2196 3.91141V4.07637L40.2153 4.08062V11.6174C40.2149 11.6592 40.1979 11.6992 40.1677 11.7286C40.1378 11.7579 40.0973 11.7742 40.0552 11.7738H38.4228C38.3806 11.7742 38.3401 11.7579 38.3102 11.7286C38.28 11.6992 38.263 11.6592 38.2626 11.6174V10.7371C37.5874 11.6245 36.5875 11.7311 35.7149 11.7468C33.3744 11.7624 31.6436 10.3432 31.6436 7.61294C31.6436 4.93099 33.4545 3.52747 35.7635 3.5431C36.729 3.5431 37.7891 3.83746 38.1095 4.15598C38.1322 4.18229 38.1684 4.19271 38.2016 4.18251C38.2348 4.17232 38.2587 4.14345 38.2626 4.10907V4.07068V3.91141C38.263 3.86954 38.28 3.82955 38.3102 3.80021C38.3401 3.77087 38.3806 3.75461 38.4228 3.75497H40.0594C40.1015 3.75461 40.142 3.77087 40.172 3.80021C40.2022 3.82955 40.2192 3.86954 40.2196 3.91141ZM33.3727 7.61249C33.3727 9.17954 34.5072 10.0769 35.8706 9.97162C38.6901 9.75121 38.6872 5.48229 35.8664 5.27041C34.5043 5.16802 33.3727 6.04542 33.3727 7.61249Z" fill="white"/>
<path fill-rule="evenodd" clip-rule="evenodd" d="M65.7636 11.917H63.6979V6.98256C63.6979 6.40047 63.5549 5.95965 63.2688 5.66008C63.0027 5.36762 62.6224 5.20377 62.2259 5.21072C61.9203 5.21046 61.6168 5.26241 61.329 5.3643C61.0249 5.47625 60.7444 5.64358 60.502 5.85774C60.5921 6.22729 60.6354 6.60659 60.6308 6.98683V11.917H58.565V6.98256C58.565 6.40047 58.4221 5.95965 58.1359 5.66008C57.8751 5.36959 57.5005 5.20568 57.1088 5.21072C56.8221 5.20446 56.5376 5.26027 56.2747 5.37426C55.9997 5.50875 55.7474 5.68481 55.5267 5.89613V11.917H53.4609V3.65644H55.5309V4.27077C55.7972 4.01822 56.1069 3.81499 56.445 3.67066C56.7828 3.52101 57.1481 3.44301 57.5179 3.44172C57.9389 3.44497 58.3544 3.53708 58.7368 3.7119C59.1466 3.89521 59.5124 4.16331 59.8096 4.49829C60.1911 4.14794 60.635 3.8716 61.1186 3.68346C61.5854 3.51756 62.0779 3.4357 62.5736 3.44172C62.9914 3.44016 63.4067 3.50546 63.8038 3.63512C64.1847 3.76013 64.5316 3.97029 64.818 4.24943C65.1213 4.55485 65.3566 4.92012 65.5089 5.32164C65.6934 5.82227 65.7811 6.35293 65.7679 6.88585L65.7636 11.917Z" fill="white"/>
<path fill-rule="evenodd" clip-rule="evenodd" d="M83.6808 11.9192H81.6108V6.98476C81.6145 6.71826 81.5659 6.4536 81.4679 6.2055C81.3861 5.99603 81.2609 5.80609 81.1003 5.64805C80.9497 5.50263 80.7696 5.39066 80.5724 5.31957C80.3762 5.2487 80.1688 5.2126 79.96 5.21292C79.6401 5.21304 79.3225 5.26838 79.0216 5.37644C78.7081 5.48937 78.4224 5.66727 78.1833 5.89834V11.9192H76.1191V3.65865H78.1891L78.2033 4.27295C78.3412 4.13925 78.4961 4.02404 78.664 3.93025C79.0269 3.72216 79.4234 3.57786 79.8357 3.50365C80.0323 3.46593 80.232 3.44641 80.4321 3.44533C80.844 3.44392 81.253 3.5112 81.6424 3.64443C82.0268 3.77546 82.3795 3.98468 82.678 4.25874C82.9958 4.55924 83.2432 4.92522 83.4034 5.33095C83.5974 5.82931 83.6903 6.36094 83.6766 6.89516L83.6808 11.9192Z" fill="white"/>
<path fill-rule="evenodd" clip-rule="evenodd" d="M101.241 5.28802H100.364C100.583 5.71244 100.696 6.18313 100.694 6.66027C100.694 7.02998 100.623 7.39628 100.485 7.73959C100.345 8.08909 100.143 8.41081 99.8889 8.6895C99.6192 8.98401 99.3008 9.23071 98.9477 9.41899C98.5603 9.62406 98.1393 9.75934 97.7045 9.81859C97.4534 9.84384 97.2102 9.9193 96.9892 10.0404C96.8305 10.14 96.7517 10.2395 96.7517 10.3405C96.7517 10.4414 96.8305 10.5324 96.9892 10.6249C97.2142 10.7276 97.4572 10.7855 97.7045 10.7955C98.7773 10.8903 99.6084 11.1572 100.198 11.5961C100.767 11.9942 101.098 12.6481 101.082 13.3395C101.085 13.7006 100.991 14.0561 100.81 14.3691C100.616 14.6965 100.349 14.9753 100.029 15.1839C99.6544 15.4285 99.2401 15.6075 98.8045 15.7129C98.28 15.842 97.7411 15.9041 97.2009 15.8977C96.6531 15.9043 96.1065 15.8422 95.5743 15.7129C95.1355 15.6071 94.7171 15.4308 94.3356 15.191C94.0122 14.9875 93.7421 14.7107 93.5473 14.3833C93.365 14.0656 93.2711 13.7053 93.2755 13.3395C93.2587 12.8173 93.4337 12.3068 93.7676 11.9033C94.0953 11.5179 94.626 11.2292 95.3727 11.0387C95.1748 10.9761 95.0013 10.8538 94.8763 10.6889C94.7783 10.5592 94.7279 10.4002 94.7331 10.2381C94.7475 10.0756 94.816 9.9224 94.9277 9.80296C95.0661 9.65227 95.2424 9.54127 95.4385 9.48158C95.1823 9.36398 94.9421 9.21493 94.7232 9.03791C94.4932 8.85401 94.2866 8.64295 94.108 8.40937C93.9233 8.16674 93.7785 7.89651 93.6789 7.60876C93.5718 7.30592 93.5181 6.98697 93.5201 6.66596C93.5169 6.23018 93.6149 5.79955 93.8063 5.40747C93.9958 5.02047 94.2591 4.67372 94.5817 4.38646C94.9154 4.09119 95.3002 3.85848 95.7175 3.69963C96.1531 3.53226 96.6164 3.44738 97.0836 3.44935C97.5291 3.44576 97.9718 3.51841 98.3926 3.66408H101.241V5.28802ZM99.0118 13.334C99.0169 13.0082 98.8126 12.7154 98.504 12.6059C98.0882 12.4385 97.6417 12.3605 97.1936 12.3769C96.6213 12.3769 96.1693 12.458 95.8388 12.6201C95.5083 12.7822 95.3453 13.0197 95.3453 13.3311C95.3453 13.6425 95.517 13.8999 95.8617 14.0606C96.7173 14.3823 97.6611 14.3848 98.5183 14.0677C98.8189 13.9479 99.0137 13.6558 99.0076 13.334H99.0118ZM98.503 6.07435C98.5846 6.25897 98.6259 6.4586 98.6247 6.66021H98.6204C98.6222 6.86376 98.5823 7.06555 98.503 7.25321C98.4252 7.43419 98.3142 7.59915 98.1755 7.73953C98.0366 7.87839 97.8726 7.98983 97.6919 8.06803C97.5052 8.14902 97.3033 8.19018 97.0996 8.18889C96.8985 8.19075 96.6995 8.14953 96.516 8.06803C96.3382 7.98866 96.1766 7.87729 96.0397 7.73953C95.9 7.5999 95.7888 7.43475 95.712 7.25321C95.6304 7.06608 95.5891 6.86412 95.5903 6.66021C95.5883 6.45854 95.6298 6.25875 95.712 6.07435C95.7898 5.89552 95.901 5.73293 96.0397 5.59512C96.1766 5.45738 96.3382 5.34599 96.516 5.26664C96.6995 5.18468 96.8985 5.14297 97.0996 5.14434C97.3035 5.14353 97.5052 5.1852 97.6919 5.26664C97.8726 5.34482 98.0366 5.45628 98.1755 5.59512C98.313 5.73366 98.4242 5.89609 98.503 6.07435Z" fill="white"/>
<path fill-rule="evenodd" clip-rule="evenodd" d="M110.36 8.19036C110.375 8.05293 110.383 7.91478 110.383 7.77655L110.388 7.7808C110.407 6.60083 109.921 5.46854 109.051 4.66515C108.636 4.28213 108.154 3.97929 107.627 3.77213C107.093 3.55754 106.522 3.44792 105.945 3.44932C105.352 3.44537 104.765 3.5625 104.22 3.79345C103.696 4.01265 103.218 4.32763 102.811 4.72204C102.407 5.11566 102.085 5.58432 101.862 6.10139C101.403 7.18424 101.403 8.40582 101.862 9.48866C102.084 10.0045 102.403 10.4729 102.804 10.868C103.21 11.2637 103.688 11.5788 104.213 11.7966C104.766 12.0276 105.36 12.1442 105.959 12.1393C106.552 12.1425 107.141 12.0533 107.706 11.8748C108.316 11.6671 108.887 11.3606 109.396 10.9676L108.088 9.66783C107.814 9.90186 107.496 10.0793 107.153 10.1897C106.792 10.3167 106.413 10.382 106.031 10.3831C105.745 10.3847 105.461 10.3366 105.191 10.2409C104.944 10.1554 104.713 10.03 104.507 9.86976C104.307 9.7141 104.134 9.52559 103.997 9.31234C103.86 9.10109 103.751 8.87308 103.674 8.63403H110.311C110.33 8.48187 110.345 8.33256 110.36 8.19036ZM107.341 5.71028C107.758 6.03034 108.062 6.47335 108.211 6.97588L103.673 6.97163C103.819 6.471 104.119 6.02842 104.531 5.70601C104.928 5.3947 105.419 5.22759 105.925 5.23249C106.438 5.22773 106.937 5.39618 107.341 5.71028Z" fill="white"/>
<path fill-rule="evenodd" clip-rule="evenodd" d="M117.642 4.51627L116.534 6.25966C116.335 6.04189 116.11 5.84769 115.866 5.68089C115.651 5.52381 115.392 5.43641 115.125 5.43062C114.975 5.43427 114.826 5.4661 114.687 5.52447C114.518 5.59301 114.365 5.69788 114.241 5.83163C114.088 5.9971 113.969 6.19019 113.889 6.40044C113.786 6.67683 113.738 6.97038 113.746 7.26503V11.9193H111.675V3.65879H113.745V4.54469C113.965 4.22216 114.246 3.94539 114.573 3.72988C114.876 3.53959 115.228 3.44078 115.586 3.44547C115.963 3.44885 116.332 3.55036 116.657 3.73984C117.023 3.94746 117.355 4.20929 117.642 4.51627Z" fill="white"/>
<path fill-rule="evenodd" clip-rule="evenodd" d="M75.0858 3.9835V4.14703H75.0801V11.6838C75.0797 11.7256 75.0625 11.7656 75.0325 11.7949C75.0026 11.8243 74.9619 11.8406 74.9197 11.8402H73.289C73.2471 11.8406 73.2066 11.8242 73.1768 11.7949C73.147 11.7655 73.1302 11.7255 73.1302 11.6838V10.8049C72.4537 11.6909 71.4537 11.7989 70.5811 11.8146C68.2406 11.8302 66.5098 10.4096 66.5098 7.68076C66.5098 4.99882 68.3208 3.59385 70.6297 3.6095C71.5952 3.6095 72.6553 3.90387 72.9757 4.22239C72.998 4.24958 73.0344 4.26082 73.0683 4.25086C73.1021 4.24092 73.1266 4.21174 73.1302 4.17689V4.1385V3.9835C73.1302 3.94177 73.147 3.90176 73.1768 3.87238C73.2066 3.843 73.2471 3.8267 73.289 3.82707H74.9256C74.9677 3.8267 75.0082 3.84296 75.0382 3.8723C75.0684 3.90164 75.0854 3.94163 75.0858 3.9835ZM68.2383 7.68564C68.2383 9.25271 69.3728 10.15 70.7374 10.0434C73.5557 9.82721 73.5528 5.56115 70.7318 5.34214C69.3699 5.23977 68.2383 6.11857 68.2383 7.68564Z" fill="white"/>
<path fill-rule="evenodd" clip-rule="evenodd" d="M92.8575 3.9835V4.14703H92.8561V11.6838C92.8553 11.7704 92.7844 11.8402 92.6971 11.8402H91.0592C90.9722 11.8402 90.9013 11.7704 90.9005 11.6838V10.8049C90.2251 11.6909 89.2238 11.7989 88.3526 11.8146C86.0122 11.8302 84.2812 10.4096 84.2812 7.68076C84.2812 4.99882 86.0924 3.59385 88.4012 3.6095C89.3669 3.6095 90.4268 3.90387 90.7474 4.22239C90.7699 4.24861 90.8057 4.25916 90.8389 4.2493C90.8719 4.23944 90.8962 4.21103 90.9005 4.17689V4.1385V3.9835C90.9013 3.89688 90.9722 3.82707 91.0592 3.82707H92.6987C92.7858 3.82707 92.8567 3.89688 92.8575 3.9835ZM86.0114 7.68564C86.0114 9.25272 87.1442 10.15 88.5091 10.0434C91.3272 9.82721 91.3229 5.56115 88.5049 5.34214C87.1428 5.23977 86.0114 6.11857 86.0114 7.68564Z" fill="white"/>
<mask id="mask0_2535_10098" style="mask-type:luminance" maskUnits="userSpaceOnUse" x="0" y="15" width="135" height="35">
<path d="M134.294 15.5898H0V49.6692H134.294V15.5898Z" fill="white"/>
</mask>
<g mask="url(#mask0_2535_10098)">
<path d="M0 49.1751V15.5898H12.5957C15.1756 15.5898 17.3411 16.0387 19.092 16.9363C20.7742 17.7577 22.165 19.074 23.0773 20.7085C23.9845 22.3136 24.4381 24.1885 24.4381 26.3334C24.4381 28.4783 23.9791 30.348 23.0611 31.9421C22.1243 33.5415 20.722 34.8171 19.0414 35.5989C17.2702 36.4519 15.0946 36.8786 12.5147 36.8786H3.54179V31.8166H11.6946C13.2026 31.8166 14.4378 31.6086 15.4004 31.1929C16.2942 30.8285 17.0435 30.1803 17.5328 29.3483C18.0026 28.5277 18.2375 27.522 18.2375 26.3314C18.2687 25.2706 18.026 24.2197 17.5328 23.28C17.0497 22.4154 16.2943 21.7349 15.3842 21.3443C14.423 20.8974 13.1816 20.6735 11.6602 20.6721H6.08524V49.1751H0ZM17.3525 33.9568L25.6673 49.1751H18.8774L10.7104 33.9568H17.3525ZM37.127 49.6672C34.6024 49.6672 32.4208 49.1428 30.5821 48.0939C28.7661 47.0432 27.3003 45.4803 26.368 43.6009C25.3838 41.653 24.8918 39.3624 24.8918 36.7287C24.8918 34.137 25.3838 31.8625 26.368 29.9052C27.2955 28.0126 28.7395 26.4213 30.5335 25.3149C32.3155 24.2094 34.408 23.6572 36.8111 23.6587C38.3094 23.6493 39.7976 23.9043 41.2075 24.4119C42.5857 24.8982 43.84 25.682 44.8809 26.708C46.0052 27.8283 46.8677 29.1837 47.4061 30.6766C48.0191 32.2736 48.3255 34.1761 48.3255 36.3845V38.2068H27.6701V34.2038H42.6432C42.6525 33.146 42.3992 32.1025 41.9061 31.1666C41.4398 30.2876 40.7389 29.5553 39.8811 29.0507C38.9771 28.5228 37.9449 28.2545 36.8982 28.2752C35.768 28.2509 34.6557 28.5587 33.6986 29.16C32.7943 29.7247 32.0537 30.5164 31.5501 31.4562C31.044 32.4112 30.7791 33.4753 30.7785 34.5561V38.0489C30.7785 39.5134 31.0485 40.7708 31.5886 41.8211C32.0885 42.8209 32.8698 43.6527 33.8363 44.2144C34.8709 44.7793 36.0357 45.062 37.2141 45.0344C38.0089 45.0454 38.7999 44.9243 39.555 44.6761C40.2318 44.4391 40.8523 44.0648 41.3776 43.5766C41.9006 43.0809 42.2994 42.4692 42.542 41.7907L48.0845 42.4123C47.756 43.8441 47.0673 45.1683 46.0838 46.2594C45.052 47.3814 43.7716 48.2462 42.3455 48.7844C40.6759 49.4003 38.9062 49.6996 37.127 49.6672ZM60.8989 49.6672C58.3838 49.6672 56.2237 49.115 54.4188 48.0109C52.6287 46.912 51.1893 45.3252 50.2695 43.4369C49.3056 41.4795 48.8242 39.2273 48.8257 36.6801C48.8271 34.1329 49.3192 31.8747 50.3019 29.9052C51.2235 28.0081 52.67 26.4152 54.4694 25.3149C56.2744 24.2094 58.4075 23.6572 60.8686 23.6587C62.9138 23.6587 64.7236 24.0353 66.2977 24.7885C67.8393 25.4848 69.1589 26.5928 70.111 27.9907C71.0632 29.3886 71.6112 31.0222 71.6944 32.7115H66.0243C65.8234 31.5473 65.2475 30.4808 64.384 29.6743C63.5321 28.8537 62.3894 28.4439 60.9556 28.4453C59.8121 28.4238 58.6916 28.7686 57.7581 29.4293C56.7881 30.1346 56.0405 31.1028 55.6035 32.2195C55.1013 33.4344 54.8495 34.8882 54.8481 36.5809C54.8481 38.2979 55.0998 39.774 55.6035 41.0091C56.0307 42.1327 56.7638 43.1147 57.7196 43.8439C58.5327 44.3893 59.4705 44.7206 60.4457 44.8069C61.421 44.8933 62.4023 44.7319 63.2986 44.3379C63.9938 44.0022 64.596 43.5009 65.0523 42.878C65.5464 42.1908 65.8775 41.3999 66.0203 40.5657H71.6904C71.5782 42.2542 71.0357 43.886 70.1149 45.3058C69.19 46.6899 67.911 47.8009 66.4111 48.5232C64.8451 49.2859 63.0076 49.6672 60.8989 49.6672ZM73.1241 49.1751V23.9867H78.8914V28.1841H79.1546C79.6137 26.7303 80.4007 25.61 81.5158 24.8229C82.6401 24.0215 83.9908 23.5995 85.3715 23.6182C85.6996 23.6182 86.0661 23.6344 86.4691 23.6688C86.8164 23.6815 87.162 23.7194 87.5039 23.7822V29.2491C87.1126 29.1341 86.7111 29.0574 86.3051 29.0203C85.7893 28.9448 85.269 28.9063 84.7478 28.9049C83.7302 28.8887 82.7252 29.1319 81.8277 29.6116C80.9891 30.0522 80.2883 30.7157 79.8027 31.529C79.3002 32.388 79.0445 33.3688 79.0635 34.3638V49.1711L73.1241 49.1751ZM104.052 38.5814V23.9867H109.99V49.1751H104.233V44.6983H103.971C103.404 46.1068 102.427 47.3123 101.167 48.1587C99.8762 49.0563 98.2852 49.5046 96.3938 49.5032C94.8627 49.5341 93.3512 49.1553 92.0157 48.4057C90.7358 47.6377 89.7093 46.5113 89.0631 45.1661C88.357 43.7501 88.0041 42.0343 88.0041 40.019V23.9867H93.9435V39.1058C93.9435 40.7028 94.3803 41.9709 95.2537 42.9104C96.1271 43.8499 97.2747 44.3223 98.6963 44.3278C99.5836 44.3252 100.457 44.1055 101.24 43.688C102.075 43.2504 102.775 42.5929 103.265 41.7867C103.79 40.9282 104.052 39.8597 104.052 38.5814ZM112.653 49.1751V23.9867H118.582V49.1751H112.653ZM133.835 23.9867V28.5769H119.352V23.9867H133.835ZM122.926 17.9487H128.863V41.5984C128.863 42.3982 128.985 43.0157 129.226 43.4369C129.446 43.8254 129.794 44.1263 130.21 44.2893C130.641 44.4462 131.096 44.5238 131.555 44.5181C131.894 44.5207 132.232 44.4936 132.567 44.4371C132.885 44.3825 133.124 44.3318 133.288 44.2893L134.292 48.9281C133.845 49.0723 133.391 49.1928 132.932 49.2885C132.23 49.4339 131.516 49.5113 130.799 49.5194C129.427 49.5817 128.058 49.3517 126.781 48.8451C125.624 48.3713 124.636 47.56 123.946 46.5166C123.255 45.4677 122.918 44.1557 122.934 42.5804L122.926 17.9487Z" fill="white"/>
</g>
<path d="M115.442 17.2016C116.681 17.2016 117.685 16.2034 117.685 14.9719C117.685 13.7405 116.681 12.7422 115.442 12.7422C114.203 12.7422 113.199 13.7405 113.199 14.9719C113.199 16.2034 114.203 17.2016 115.442 17.2016Z" fill="white"/>
<path d="M123.954 17.199C125.596 17.199 126.927 15.876 126.927 14.244C126.927 12.612 125.596 11.2891 123.954 11.2891C122.312 11.2891 120.981 12.612 120.981 14.244C120.981 15.876 122.312 17.199 123.954 17.199Z" fill="white"/>
<path d="M133.479 17.1962C135.669 17.1962 137.445 15.4314 137.445 13.2544C137.445 11.0773 135.669 9.3125 133.479 9.3125C131.289 9.3125 129.514 11.0773 129.514 13.2544C129.514 15.4314 131.289 17.1962 133.479 17.1962Z" fill="white"/>
</g>
<defs>
<clipPath id="clip0_2535_10098">
<rect width="137.5" height="49.81" fill="white"/>
</clipPath>
</defs>
</svg>
